<svg width="132" height="52" viewBox="0 0 132 52" fill="none" xmlns="http://www.w3.org/2000/svg">
<path d="M11.34 7.96V10.7H7.62V22H4.2V10.7H0.48V7.96H11.34ZM16.4164 7.96V16.36C16.4164 17.2 16.6231 17.8467 17.0364 18.3C17.4497 18.7533 18.0564 18.98 18.8564 18.98C19.6564 18.98 20.2697 18.7533 20.6964 18.3C21.1231 17.8467 21.3364 17.2 21.3364 16.36V7.96H24.7564V16.34C24.7564 17.5933 24.4897 18.6533 23.9564 19.52C23.4231 20.3867 22.7031 21.04 21.7964 21.48C20.9031 21.92 19.9031 22.14 18.7964 22.14C17.6897 22.14 16.6964 21.9267 15.8164 21.5C14.9497 21.06 14.2631 20.4067 13.7564 19.54C13.2497 18.66 12.9964 17.5933 12.9964 16.34V7.96H16.4164ZM35.898 19.52H30.658L29.818 22H26.238L31.318 7.96H35.278L40.358 22H36.738L35.898 19.52ZM35.018 16.88L33.278 11.74L31.558 16.88H35.018Z" fill="#3D3D3D"/>
<path d="M2.31934 23.8604H12.7808C14.1317 23.8604 15.3117 24.0028 16.3208 24.2876C17.3381 24.5724 18.1844 24.9712 18.8599 25.4839C19.5435 25.9966 20.0562 26.611 20.3979 27.3271C20.7397 28.0433 20.9106 28.8327 20.9106 29.6953C20.9106 30.7614 20.6584 31.7095 20.1538 32.5396C19.6493 33.3615 18.9006 34.0166 17.9077 34.5049L21.7163 42.0122H13.7451L10.8643 35.4204H9.375V42H2.31934V23.8604ZM9.80225 33.2109C10.38 33.2109 10.8968 33.1296 11.3525 32.9668C11.8083 32.804 12.1948 32.5762 12.5122 32.2832C12.8296 31.9821 13.0737 31.6281 13.2446 31.2212C13.4155 30.8062 13.501 30.3545 13.501 29.8662C13.501 29.3779 13.4155 28.9303 13.2446 28.5234C13.0737 28.1084 12.8296 27.7544 12.5122 27.4614C12.1948 27.1603 11.8083 26.9284 11.3525 26.7656C10.8968 26.6029 10.38 26.5215 9.80225 26.5215H9.38721L9.375 33.2109H9.80225ZM25.0977 23.8604H40.4297V26.6558H32.1655L32.1533 31.5508H38.4766V34.3462H32.1533V39.2046H40.4297V42H25.0977V23.8604ZM43.0054 32.9424C43.0054 32.0798 43.1152 31.2497 43.335 30.4521C43.5628 29.6465 43.8924 28.8978 44.3237 28.2061C44.755 27.5143 45.284 26.8836 45.9106 26.314C46.5373 25.7443 47.2493 25.256 48.0469 24.8491C48.8525 24.4422 49.7396 24.1289 50.708 23.9092C51.6764 23.6813 52.7181 23.5674 53.833 23.5674C54.5492 23.5674 55.2327 23.6121 55.8838 23.7017C56.543 23.7912 57.1615 23.9173 57.7393 24.0801C58.3171 24.2347 58.8501 24.4178 59.3384 24.6294C59.8348 24.8328 60.2824 25.0485 60.6812 25.2764L59.6313 27.3271C59.1756 27.1074 58.6548 26.9243 58.0688 26.7778C57.491 26.6232 56.8888 26.5459 56.2622 26.5459C55.424 26.5459 54.6468 26.6965 53.9307 26.9976C53.2145 27.2987 52.596 27.7259 52.0752 28.2793C51.5544 28.8327 51.1434 29.5041 50.8423 30.2935C50.5493 31.0747 50.4028 31.9536 50.4028 32.9302C50.4028 33.8986 50.5493 34.7775 50.8423 35.5669C51.1353 36.3481 51.5381 37.0195 52.0508 37.5811C52.5716 38.1344 53.186 38.5658 53.894 38.875C54.6102 39.1761 55.3833 39.3267 56.2134 39.3267C56.7993 39.3267 57.3853 39.2575 57.9712 39.1191C58.5571 38.9727 59.0942 38.7814 59.5825 38.5454L60.6323 40.5962C60.2336 40.8322 59.79 41.0519 59.3018 41.2554C58.8135 41.4588 58.2845 41.6419 57.7148 41.8047C57.1452 41.9593 56.5348 42.0814 55.8838 42.1709C55.2327 42.2604 54.5492 42.3052 53.833 42.3052C52.1647 42.3052 50.6592 42.061 49.3164 41.5728C47.9818 41.0763 46.8465 40.4049 45.9106 39.5586C44.9748 38.7041 44.2546 37.7113 43.75 36.5801C43.2536 35.4408 43.0054 34.2282 43.0054 32.9424ZM63.501 23.8604H78.833V26.6558H70.5688L70.5566 31.5508H76.8799V34.3462H70.5566V39.2046H78.833V42H63.501V23.8604ZM82.4707 23.8604H89.5386L89.5264 42H82.4707V23.8604ZM97.3755 26.6436H92.1997V23.8481H109.607V26.6436H104.431V42H97.3755V26.6436ZM117.273 28.438L115.173 23.8604H122.607L131.494 42.0122H123.523L122.18 39.1069H115.027L113.696 42.0122H110.608L117.273 28.438ZM120.898 36.3115L118.604 31.3311L116.321 36.3115H120.898Z" fill="#CE2E37"/>
</svg>
